<svg width="101" height="100" viewBox="0 0 101 100" fill="none" xmlns="http://www.w3.org/2000/svg">
<g clip-path="url(#clip0_358_43064)">
<path d="M50.5 0C40.611 0 30.944 2.93245 22.7215 8.42652C14.4991 13.9206 8.09043 21.7295 4.30604 30.8658C0.521663 40.0021 -0.468502 50.0555 1.46076 59.7545C3.39002 69.4536 8.15206 78.3627 15.1447 85.3553C22.1373 92.3479 31.0465 97.11 40.7455 99.0392C50.4445 100.968 60.4979 99.9783 69.6342 96.194C78.7705 92.4096 86.5794 86.001 92.0735 77.7785C97.5676 69.556 100.5 59.8891 100.5 50C100.485 36.7436 95.2129 24.0344 85.8393 14.6607C76.4656 5.28707 63.7564 0.014558 50.5 0ZM50.5 96C41.4021 96 32.5084 93.3021 24.9438 88.2476C17.3791 83.193 11.4832 76.0088 8.00156 67.6034C4.51993 59.198 3.60898 49.949 5.3839 41.0258C7.15882 32.1027 11.5399 23.9063 17.9731 17.4731C24.4063 11.0399 32.6027 6.6588 41.5259 4.88388C50.449 3.10896 59.698 4.01991 68.1034 7.50154C76.5089 10.9832 83.6931 16.8791 88.7476 24.4438C93.8022 32.0084 96.5 40.9021 96.5 50C96.4868 62.1959 91.6361 73.8885 83.0123 82.5123C74.3885 91.1361 62.6959 95.9867 50.5 96ZM28.5 40C28.5 39.2089 28.7346 38.4355 29.1741 37.7777C29.6137 37.1199 30.2384 36.6072 30.9693 36.3045C31.7002 36.0017 32.5045 35.9225 33.2804 36.0769C34.0563 36.2312 34.769 36.6122 35.3284 37.1716C35.8879 37.731 36.2688 38.4437 36.4232 39.2196C36.5775 39.9956 36.4983 40.7998 36.1955 41.5307C35.8928 42.2616 35.3801 42.8863 34.7223 43.3259C34.0645 43.7654 33.2911 44 32.5 44C31.4391 44 30.4217 43.5786 29.6716 42.8284C28.9214 42.0783 28.5 41.0609 28.5 40ZM72.5 40C72.5 40.7911 72.2654 41.5645 71.8259 42.2223C71.3864 42.8801 70.7616 43.3928 70.0307 43.6955C69.2998 43.9983 68.4956 44.0775 67.7196 43.9231C66.9437 43.7688 66.231 43.3878 65.6716 42.8284C65.1122 42.269 64.7312 41.5563 64.5769 40.7804C64.4225 40.0044 64.5017 39.2002 64.8045 38.4693C65.1072 37.7384 65.6199 37.1136 66.2777 36.6741C66.9355 36.2346 67.7089 36 68.5 36C69.5609 36 70.5783 36.4214 71.3284 37.1716C72.0786 37.9217 72.5 38.9391 72.5 40ZM72.23 73C72.4948 73.4589 72.5666 74.0042 72.4297 74.516C72.2928 75.0278 71.9585 75.4644 71.5 75.73C71.1968 75.9078 70.8515 76.001 70.5 76C70.1493 75.9996 69.8048 75.907 69.5012 75.7315C69.1975 75.556 68.9454 75.3037 68.77 75C64.665 67.905 58.175 64 50.5 64C42.825 64 36.335 67.905 32.23 75C31.9533 75.4353 31.519 75.7469 31.018 75.8696C30.517 75.9923 29.9879 75.9167 29.5413 75.6586C29.0947 75.4004 28.7651 74.9797 28.6214 74.4843C28.4777 73.9889 28.5309 73.4571 28.77 73C33.545 64.74 41.47 60 50.5 60C59.53 60 67.455 64.74 72.23 73Z" fill="#B0AFAF"/>
</g>
<defs>
<clipPath id="clip0_358_43064">
<rect width="100" height="100" fill="white" transform="translate(0.5)"/>
</clipPath>
</defs>
</svg>
