<svg width="101" height="100" viewBox="0 0 101 100" fill="none" xmlns="http://www.w3.org/2000/svg">
<path d="M61.2143 96.4286H11.2143C9.3199 96.4286 7.50308 95.676 6.16354 94.3365C4.82399 92.9969 4.07144 91.1801 4.07144 89.2857V10.7143C4.07144 8.81987 4.82399 7.00305 6.16354 5.66351C7.50308 4.32396 9.3199 3.57141 11.2143 3.57141H89.7857C91.6801 3.57141 93.4969 4.32396 94.8365 5.66351C96.176 7.00305 96.9286 8.81987 96.9286 10.7143V60.7143L61.2143 96.4286Z" stroke="#B0AFAF" stroke-width="3" stroke-linecap="round" stroke-linejoin="round"/>
<path d="M61.2143 64.2857V96.4285L96.9286 60.7142H64.7857C63.8385 60.7142 62.9301 61.0905 62.2603 61.7603C61.5906 62.4301 61.2143 63.3385 61.2143 64.2857Z" stroke="#B0AFAF" stroke-width="3" stroke-linecap="round" stroke-linejoin="round"/>
</svg>
