<svg width="101" height="100" viewBox="0 0 101 100" fill="none" xmlns="http://www.w3.org/2000/svg">
<path d="M4.60156 4.10156V15.5762H16.0762V4.10156H4.60156ZM16.0762 15.5762V27.0508H27.5508V15.5762H16.0762ZM27.5508 15.5762H39.0254V4.10156H27.5508V15.5762ZM39.0254 15.5762V27.0508H50.5V15.5762H39.0254ZM50.5 15.5762H61.9746V4.10156H50.5V15.5762ZM61.9746 15.5762V27.0508H73.4492V15.5762H61.9746ZM73.4492 15.5762H84.9238V4.10156H73.4492V15.5762ZM84.9238 15.5762V27.0508H96.3984V15.5762H84.9238ZM84.9238 27.0508H73.4492V38.5254H84.9238V27.0508ZM84.9238 38.5254V50H96.3984V38.5254H84.9238ZM84.9238 50H73.4492V61.4746H84.9238V50ZM84.9238 61.4746V72.9492H96.3984V61.4746H84.9238ZM84.9238 72.9492H73.4492V84.4238H84.9238V72.9492ZM84.9238 84.4238V95.8984H96.3984V84.4238H84.9238ZM73.4492 84.4238H61.9746V95.8984H73.4492V84.4238ZM61.9746 84.4238V72.9492H50.5V84.4238H61.9746ZM50.5 84.4238H39.0254V95.8984H50.5V84.4238ZM39.0254 84.4238V72.9492H27.5508V84.4238H39.0254ZM27.5508 84.4238H16.0762V95.8984H27.5508V84.4238ZM16.0762 84.4238V72.9492H4.60156V84.4238H16.0762ZM16.0762 72.9492H27.5508V61.4746H16.0762V72.9492ZM16.0762 61.4746V50H4.60156V61.4746H16.0762ZM16.0762 50H27.5508V38.5254H16.0762V50ZM16.0762 38.5254V27.0508H4.60156V38.5254H16.0762ZM27.5508 38.5254H39.0254V27.0508H27.5508V38.5254ZM39.0254 38.5254V50H50.5V38.5254H39.0254ZM50.5 38.5254H61.9746V27.0508H50.5V38.5254ZM61.9746 38.5254V50H73.4492V38.5254H61.9746ZM61.9746 50H50.5V61.4746H61.9746V50ZM61.9746 61.4746V72.9492H73.4492V61.4746H61.9746ZM50.5 61.4746H39.0254V72.9492H50.5V61.4746ZM39.0254 61.4746V50H27.5508V61.4746H39.0254Z" fill="#B0AFAF"/>
</svg>
