<svg width="21" height="20" viewBox="0 0 21 20" fill="none" xmlns="http://www.w3.org/2000/svg">
<path d="M11.0162 15.8929L10.501 15.5824L9.9853 15.892L4.89296 18.949L4.89117 18.9501C4.71157 19.0584 4.51011 18.8984 4.55309 18.7133C4.55311 18.7132 4.55313 18.7131 4.55315 18.713L5.90282 12.9419L6.04061 12.3527L5.58264 11.9572L1.07929 8.06872L1.07894 8.06842C0.929642 7.93963 1.00949 7.698 1.20419 7.68257L1.20419 7.68258L1.20946 7.68214L7.13622 7.18079L7.7359 7.13006L7.97186 6.57642L10.291 1.13493L10.291 1.13493L10.2927 1.13104C10.3152 1.07767 10.3432 1.05117 10.3702 1.03436C10.402 1.01454 10.4471 1 10.5 1C10.5529 1 10.598 1.01454 10.6298 1.03436C10.6568 1.05117 10.6848 1.07767 10.7073 1.13104L10.7087 1.13419L13.0278 6.58791L13.2635 7.14224L13.8638 7.19302L19.7905 7.69438L19.7958 7.6948C19.9905 7.71023 20.0704 7.95186 19.9211 8.08065L19.9207 8.08095L15.4174 11.9695L14.9594 12.3649L15.0972 12.9541L16.4468 18.7253C16.4901 18.9105 16.2885 19.0707 16.1088 18.9623L16.1086 18.9622L11.0162 15.8929ZM16.0709 12.7264L20.5743 8.83784L16.0709 12.7264Z" stroke="#765BAB" stroke-width="2"/>
</svg>
