<svg width="21" height="20" viewBox="0 0 21 20" fill="none" xmlns="http://www.w3.org/2000/svg">
<path d="M16.1088 18.9623L16.1086 18.9622L11.0677 15.924C10.719 15.7138 10.2828 15.7134 9.93375 15.923L9.93373 15.923L4.89296 18.949L4.89117 18.9501C4.71157 19.0584 4.51011 18.8984 4.55309 18.7133C4.55311 18.7132 4.55313 18.7131 4.55315 18.713L5.88904 13.0008L4.91532 12.7731L5.88904 13.0008C5.98222 12.6023 5.84655 12.1851 5.53683 11.9177L1.07929 8.06872L1.07894 8.06842C0.929642 7.93963 1.00949 7.698 1.20419 7.68257L1.20419 7.68258L1.20946 7.68214L7.07625 7.18586L7.07626 7.18586C7.48209 7.15153 7.83576 6.89576 7.99546 6.52106C7.99546 6.52106 7.99546 6.52105 7.99546 6.52105L10.291 1.13493L10.291 1.13493L10.2927 1.13104C10.3152 1.07767 10.3432 1.05117 10.3702 1.03436C10.402 1.01454 10.4471 1 10.5 1C10.5529 1 10.598 1.01454 10.6298 1.03436C10.6568 1.05117 10.6848 1.07767 10.7073 1.13104L10.7087 1.13419L13.0042 6.53247L13.9245 6.14114L13.0042 6.53247C13.1638 6.90758 13.5176 7.16374 13.9238 7.19809L19.7905 7.69438L19.7958 7.6948C19.9905 7.71023 20.0704 7.95186 19.9211 8.08065L19.9207 8.08095L15.4632 11.9299C15.1534 12.1973 15.0178 12.6146 15.111 13.013L16.4468 18.7253C16.4901 18.9105 16.2885 19.0707 16.1088 18.9623Z" stroke="#9E76E9" stroke-width="2"/>
</svg>
