<svg width="25" height="25" viewBox="0 0 25 25" fill="none" xmlns="http://www.w3.org/2000/svg">
<path d="M11.4222 1.6526C11.7234 1.39266 12.1053 1.25 12.5 1.25C12.8947 1.25 13.2766 1.39266 13.5778 1.6526L21.9111 8.85803C22.0956 9.01747 22.2439 9.21593 22.3456 9.43964C22.4473 9.66335 22.5 9.90694 22.5 10.1535V20.8014C22.5 21.2519 22.3244 21.6839 22.0118 22.0025C21.6993 22.321 21.2754 22.5 20.8333 22.5H14.4444C14.2234 22.5 14.0115 22.4105 13.8552 22.2512C13.6989 22.092 13.6111 21.8759 13.6111 21.6507V14.5732H11.3889V21.6507C11.3889 21.8759 11.3011 22.092 11.1448 22.2512C10.9885 22.4105 10.7766 22.5 10.5556 22.5H4.16667C3.72464 22.5 3.30072 22.321 2.98816 22.0025C2.67559 21.6839 2.5 21.2519 2.5 20.8014V10.1535C2.5 9.65524 2.71556 9.18077 3.08889 8.85803L11.4222 1.6526ZM12.5 2.94806L4.16667 10.1535V20.8014H9.72222V13.7239C9.72222 13.4987 9.81002 13.2827 9.9663 13.1234C10.1226 12.9641 10.3345 12.8746 10.5556 12.8746H14.4444C14.6655 12.8746 14.8774 12.9641 15.0337 13.1234C15.19 13.2827 15.2778 13.4987 15.2778 13.7239V20.8014H20.8333V10.1535L12.5 2.94806Z" fill="#C5C5C5"/>
</svg>
