<svg width="25" height="25" viewBox="0 0 25 25" fill="none" xmlns="http://www.w3.org/2000/svg">
<path d="M12.5 1.25C12.1053 1.25 11.7234 1.39266 11.4222 1.6526L3.08889 8.85803C2.71556 9.18077 2.5 9.65524 2.5 10.1535V20.8014C2.5 21.2519 2.67559 21.6839 2.98816 22.0025C3.30072 22.321 3.72464 22.5 4.16667 22.5H10.5556C10.7766 22.5 10.9885 22.4105 11.1448 22.2512C11.3011 22.092 11.3889 21.876 11.3889 21.6507V14.5732H13.6111V21.6507C13.6111 21.876 13.6989 22.092 13.8552 22.2512C14.0115 22.4105 14.2234 22.5 14.4444 22.5H20.8333C21.2754 22.5 21.6993 22.321 22.0118 22.0025C22.3244 21.6839 22.5 21.2519 22.5 20.8014V10.1535C22.5 9.90694 22.4473 9.66335 22.3456 9.43964C22.2439 9.21593 22.0956 9.01747 21.9111 8.85803L13.5778 1.6526C13.2766 1.39266 12.8947 1.25 12.5 1.25Z" fill="#9E76E9"/>
</svg>
