<svg width="42" height="42" viewBox="0 0 42 42" fill="none" xmlns="http://www.w3.org/2000/svg">
<circle cx="21" cy="21" r="20" fill="#9E76E9" stroke="#9E76E9" stroke-width="2"/>
<path d="M12.8202 27.3766C12.8202 26.2899 13.2519 25.2476 14.0203 24.4792C14.7888 23.7108 15.831 23.2791 16.9178 23.2791H25.1129C26.1996 23.2791 27.2418 23.7108 28.0103 24.4792C28.7787 25.2476 29.2104 26.2899 29.2104 27.3766C29.2104 27.92 28.9946 28.4411 28.6104 28.8253C28.2261 29.2095 27.705 29.4254 27.1617 29.4254H14.869C14.3256 29.4254 13.8045 29.2095 13.4203 28.8253C13.036 28.4411 12.8202 27.92 12.8202 27.3766Z" stroke="#1D1D1D" stroke-width="1.8" stroke-linejoin="round"/>
<path d="M21.0153 19.1815C22.7126 19.1815 24.0885 17.8056 24.0885 16.1083C24.0885 14.4111 22.7126 13.0352 21.0153 13.0352C19.318 13.0352 17.9421 14.4111 17.9421 16.1083C17.9421 17.8056 19.318 19.1815 21.0153 19.1815Z" stroke="#1D1D1D" stroke-width="1.8"/>
</svg>
