<svg width="26" height="26" viewBox="0 0 26 26" fill="none" xmlns="http://www.w3.org/2000/svg">
<path d="M4.82019 19.3766C4.82019 18.2899 5.2519 17.2476 6.02034 16.4792C6.78878 15.7108 7.83101 15.2791 8.91775 15.2791H17.1129C18.1996 15.2791 19.2418 15.7108 20.0103 16.4792C20.7787 17.2476 21.2104 18.2899 21.2104 19.3766C21.2104 19.92 20.9946 20.4411 20.6104 20.8253C20.2261 21.2095 19.705 21.4254 19.1617 21.4254H6.86897C6.3256 21.4254 5.80449 21.2095 5.42026 20.8253C5.03604 20.4411 4.82019 19.92 4.82019 19.3766Z" stroke="#8767C5" stroke-width="1.8" stroke-linejoin="round"/>
<path d="M13.0153 11.1815C14.7126 11.1815 16.0885 9.80559 16.0885 8.10833C16.0885 6.41106 14.7126 5.03516 13.0153 5.03516C11.318 5.03516 9.94214 6.41106 9.94214 8.10833C9.94214 9.80559 11.318 11.1815 13.0153 11.1815Z" stroke="#8767C5" stroke-width="1.8"/>
</svg>
