<svg width="24" height="24" viewBox="0 0 24 24" fill="none" xmlns="http://www.w3.org/2000/svg">
<path d="M13.9635 15.0239C12.6156 16.1007 10.9066 16.6206 9.1874 16.4767C7.46821 16.3329 5.86935 15.5362 4.71921 14.2503C3.56906 12.9644 2.95493 11.2869 3.00294 9.56241C3.05095 7.83788 3.75745 6.19718 4.97735 4.97728C6.19725 3.75737 7.83795 3.05087 9.56249 3.00286C11.287 2.95485 12.9645 3.56899 14.2504 4.71913C15.5362 5.86928 16.3329 7.46813 16.4768 9.18732C16.6207 10.9065 16.1008 12.6155 15.024 13.9634L20.781 19.7189C20.9218 19.8598 21.0009 20.0508 21.0009 20.2499C21.0009 20.4491 20.9218 20.6401 20.781 20.7809C20.6402 20.9218 20.4492 21.0009 20.25 21.0009C20.0508 21.0009 19.8598 20.9218 19.719 20.7809L13.965 15.0239H13.9635ZM15 9.74992C15 9.06048 14.8642 8.37779 14.6004 7.74083C14.3365 7.10387 13.9498 6.52512 13.4623 6.03761C12.9748 5.5501 12.396 5.16339 11.7591 4.89955C11.1221 4.63572 10.4394 4.49992 9.75 4.49992C9.06056 4.49992 8.37787 4.63572 7.74091 4.89955C7.10395 5.16339 6.5252 5.5501 6.03769 6.03761C5.55018 6.52512 5.16347 7.10387 4.89963 7.74083C4.63579 8.37779 4.5 9.06048 4.5 9.74992C4.5 11.1423 5.05312 12.4777 6.03769 13.4622C7.02225 14.4468 8.35761 14.9999 9.75 14.9999C11.1424 14.9999 12.4777 14.4468 13.4623 13.4622C14.4469 12.4777 15 11.1423 15 9.74992Z" fill="#B0AFAF"/>
</svg>
