<svg width="25" height="25" viewBox="0 0 25 25" fill="none" xmlns="http://www.w3.org/2000/svg">
<path d="M18.1243 21.8797L18.1241 21.8795L13.0848 18.7157C12.7278 18.4916 12.2741 18.4912 11.9167 18.7147L11.9167 18.7147L6.87745 21.8658L6.87565 21.867C6.82094 21.9013 6.78464 21.9038 6.76183 21.9023C6.73303 21.9003 6.69437 21.8886 6.65426 21.8583C6.57616 21.7993 6.52359 21.6978 6.55508 21.5569C6.55509 21.5568 6.55511 21.5567 6.55513 21.5567L7.89198 15.6021C7.89198 15.6021 7.89198 15.6021 7.89198 15.6021C7.9791 15.2141 7.84999 14.8092 7.55432 14.5433L6.88557 15.2868L7.55431 14.5433L3.09448 10.5319L3.09413 10.5316C3.0084 10.4545 2.97675 10.3426 3.0162 10.2171C3.03552 10.1556 3.06751 10.1117 3.09743 10.0859C3.12253 10.0643 3.15434 10.0473 3.20746 10.0429L3.20747 10.0429L3.21295 10.0424L9.07899 9.52555C9.079 9.52555 9.079 9.52555 9.079 9.52555C9.48907 9.48941 9.84464 9.22734 10.0005 8.84634C10.0005 8.84634 10.0005 8.84634 10.0005 8.84634L12.2966 3.23452L12.2966 3.23452L12.2982 3.23072C12.3259 3.16216 12.3599 3.13098 12.3858 3.1142C12.4159 3.09462 12.4555 3.08203 12.5 3.08203C12.5445 3.08203 12.5841 3.09462 12.6142 3.1142C12.6401 3.13098 12.6741 3.16216 12.7018 3.23072L12.7031 3.23379L14.9992 8.85828L14.9992 8.8583C15.1549 9.23969 15.5107 9.50213 15.9211 9.53829L21.7871 10.0552V10.0552L21.7925 10.0556C21.8457 10.06 21.8775 10.077 21.9026 10.0987C21.9325 10.1244 21.9645 10.1684 21.9838 10.2299C22.0232 10.3553 21.9916 10.4673 21.9059 10.5443L21.9055 10.5446L17.4457 14.556C17.15 14.8219 17.0209 15.2268 17.108 15.6148C17.108 15.6148 17.108 15.6149 17.108 15.6149L18.4449 21.5694C18.4765 21.7104 18.4239 21.812 18.3457 21.871C18.3056 21.9013 18.267 21.9131 18.2382 21.915C18.2154 21.9166 18.1791 21.9141 18.1243 21.8797Z" stroke="#C5C5C5" stroke-width="2"/>
</svg>
