<svg width="100" height="100" viewBox="0 0 100 100" fill="none" xmlns="http://www.w3.org/2000/svg">
<g clip-path="url(#clip0_870_6559)">
<rect width="100" height="100" rx="15" fill="#9E76E9"/>
<g filter="url(#filter0_d_870_6559)">
<path d="M27.5598 79.9094L24.0048 19.8966C31.8768 19.3207 39.8646 18.8476 47.9684 18.4771C52.4579 18.2659 56.5277 18.8464 60.1777 20.2186C63.8824 21.5876 66.8326 23.6586 69.0283 26.4315C71.2207 29.1499 72.4301 32.4194 72.6564 36.2401C72.8957 40.2792 72.3415 43.8997 70.9939 47.1016C69.643 50.2489 67.2702 52.8269 63.8753 54.8355C60.4773 56.7895 55.9333 57.9351 50.2433 58.2721C48.7661 58.3596 39.7189 58.8682 38.895 58.8622L30.266 46.9672C32.1874 46.9629 47.2936 46.0133 49.7523 45.8129C51.5546 45.6513 53.0381 45.2074 54.203 44.4812C55.4225 43.7516 56.2977 42.7686 56.8283 41.5322C57.4138 40.2925 57.6563 38.8266 57.5561 37.1346C57.4106 34.6784 56.509 32.8969 54.8512 31.7901C53.1902 30.6287 50.8262 30.1115 47.7592 30.2384C45.8957 30.294 42.7209 30.4546 38.2346 30.7204L40.5686 70.123C40.8625 75.0849 37.0784 79.3455 32.1165 79.6394L27.5598 79.9094Z" fill="#FAFAFA"/>
</g>
<g filter="url(#filter1_d_870_6559)">
<path d="M32.3999 85.6009V25.4829C40.2921 25.3735 48.294 25.3735 56.4054 25.4829C60.8996 25.5376 64.9279 26.3577 68.4904 27.9434C72.1077 29.529 74.9302 31.7708 76.9581 34.6687C78.986 37.512 79.9999 40.8473 79.9999 44.6747C79.9999 48.7209 79.2326 52.3022 77.698 55.4189C76.1634 58.4808 73.6423 60.914 70.1346 62.7183C66.627 64.468 62.0232 65.3428 56.3232 65.3428C54.8434 65.3428 45.782 65.3155 44.9599 65.2608L37.0494 52.8764C37.9612 52.9283 41.8599 52.9433 45.9647 52.9387C50.4948 52.9337 55.2759 52.905 56.5699 52.8764C58.3785 52.8217 59.8857 52.4663 61.0914 51.8101C62.352 51.154 63.2837 50.2245 63.8866 49.0216C64.5443 47.8187 64.8731 46.3697 64.8731 44.6747C64.8731 42.2142 64.0784 40.3825 62.489 39.1796C60.8996 37.922 58.5703 37.2659 55.5011 37.2112C53.6377 37.1566 50.4589 37.1292 45.9647 37.1292V52.9387V76.6009C45.9647 81.5714 41.9352 85.6009 36.9647 85.6009H32.3999Z" fill="#9E76E9"/>
<path d="M45.9647 52.9387C50.4948 52.9337 55.2759 52.905 56.5699 52.8764C58.3785 52.8217 59.8857 52.4663 61.0914 51.8101C62.352 51.154 63.2837 50.2245 63.8866 49.0216C64.5443 47.8187 64.8731 46.3697 64.8731 44.6747C64.8731 42.2142 64.0784 40.3825 62.489 39.1796C60.8996 37.922 58.5703 37.2659 55.5011 37.2112C53.6377 37.1566 50.4589 37.1292 45.9647 37.1292V52.9387Z" fill="#9E76E9"/>
</g>
<path d="M29.6 82.801V22.683C37.4922 22.5736 45.494 22.5736 53.6055 22.683C58.0997 22.7376 62.128 23.5578 65.6905 25.1435C69.3077 26.7291 72.1303 28.9709 74.1582 31.8688C76.186 34.712 77.2 38.0474 77.2 41.8748C77.2 45.9209 76.4327 49.5023 74.8981 52.6189C73.3635 55.6809 70.8423 58.114 67.3347 59.9184C63.827 61.6681 59.2232 62.5429 53.5233 62.5429C52.0435 62.5429 42.9821 62.5156 42.1599 62.4609L34.2494 50.0764C36.1677 50.1858 51.3036 50.1311 53.7699 50.0764C55.5786 50.0218 57.0858 49.6663 58.2915 49.0102C59.5521 48.3541 60.4838 47.4246 61.0867 46.2217C61.7444 45.0188 62.0732 43.5698 62.0732 41.8748C62.0732 39.4143 61.2785 37.5826 59.6891 36.3797C58.0997 35.1221 55.7704 34.466 52.7012 34.4113C50.8377 34.3566 47.6589 34.3293 43.1647 34.3293V73.801C43.1647 78.7715 39.1353 82.801 34.1647 82.801H29.6Z" fill="#141414"/>
</g>
<defs>
<filter id="filter0_d_870_6559" x="11.0049" y="5.43481" width="68.7057" height="81.4745" filterUnits="userSpaceOnUse" color-interpolation-filters="sRGB">
<feFlood flood-opacity="0" result="BackgroundImageFix"/>
<feColorMatrix in="SourceAlpha" type="matrix" values="0 0 0 0 0 0 0 0 0 0 0 0 0 0 0 0 0 0 127 0" result="hardAlpha"/>
<feOffset dx="-3" dy="-3"/>
<feGaussianBlur stdDeviation="5"/>
<feComposite in2="hardAlpha" operator="out"/>
<feColorMatrix type="matrix" values="0 0 0 0 0.60837 0 0 0 0 0.546167 0 0 0 0 0.725 0 0 0 0.2 0"/>
<feBlend mode="normal" in2="BackgroundImageFix" result="effect1_dropShadow_870_6559"/>
<feBlend mode="normal" in="SourceGraphic" in2="effect1_dropShadow_870_6559" result="shape"/>
</filter>
<filter id="filter1_d_870_6559" x="25.3999" y="12.4009" width="67.6" height="80.2" filterUnits="userSpaceOnUse" color-interpolation-filters="sRGB">
<feFlood flood-opacity="0" result="BackgroundImageFix"/>
<feColorMatrix in="SourceAlpha" type="matrix" values="0 0 0 0 0 0 0 0 0 0 0 0 0 0 0 0 0 0 127 0" result="hardAlpha"/>
<feOffset dx="3" dy="-3"/>
<feGaussianBlur stdDeviation="5"/>
<feComposite in2="hardAlpha" operator="out"/>
<feColorMatrix type="matrix" values="0 0 0 0 0.492947 0 0 0 0 0.318073 0 0 0 0 0.820833 0 0 0 0.3 0"/>
<feBlend mode="normal" in2="BackgroundImageFix" result="effect1_dropShadow_870_6559"/>
<feBlend mode="normal" in="SourceGraphic" in2="effect1_dropShadow_870_6559" result="shape"/>
</filter>
<clipPath id="clip0_870_6559">
<rect width="100" height="100" fill="white"/>
</clipPath>
</defs>
</svg>
